<svg id="Layer_1" data-name="Layer 1" xmlns="http://www.w3.org/2000/svg" viewBox="0 0 300 300"><title>W A S D to move!</title><rect y="59.5" width="300" height="181" rx="27.78" ry="27.78" style="fill:#fff"/><rect x="31.52" y="89.72" width="236.95" height="120.57" rx="19.5" ry="19.5" style="fill:#fff;stroke:#404040;stroke-miterlimit:10;stroke-width:6px"/><rect x="65.57" y="123.15" width="25.23" height="25.23" rx="9.21" ry="9.21" style="fill:#404040;stroke:#404040;stroke-miterlimit:10;stroke-width:4px"/><text transform="translate(73.26 140.49)" style="font-size:16.10610008239746px;fill:#fff;font-family:MyriadPro-Bold, Myriad Pro;font-weight:700">A</text><rect x="94.26" y="94.59" width="25.23" height="25.23" rx="9.21" ry="9.21" style="fill:#404040;stroke:#404040;stroke-miterlimit:10;stroke-width:4px"/><text transform="translate(100.07 113.08)" style="font-size:16.10610008239746px;fill:#fff;font-family:MyriadPro-Bold, Myriad Pro;font-weight:700">W</text><rect x="122.96" y="123.15" width="25.23" height="25.23" rx="9.21" ry="9.21" style="fill:#404040;stroke:#404040;stroke-miterlimit:10;stroke-width:4px"/><text transform="translate(130.21 140.49)" style="font-size:16.10610008239746px;fill:#fff;font-family:MyriadPro-Bold, Myriad Pro;font-weight:700">D</text><rect x="94.26" y="123.15" width="25.23" height="25.23" rx="9.21" ry="9.21" style="fill:#404040;stroke:#404040;stroke-miterlimit:10;stroke-width:4px"/><text transform="translate(102.91 140.49)" style="font-size:16.10610008239746px;fill:#fff;font-family:MyriadPro-Bold, Myriad Pro;font-weight:700">S</text><rect x="65.57" y="151.7" width="25.23" height="25.23" rx="9.21" ry="9.21" style="fill:#fff;stroke:#404040;stroke-miterlimit:10;stroke-width:4px"/><rect x="122.96" y="151.7" width="25.23" height="25.23" rx="9.21" ry="9.21" style="fill:#fff;stroke:#404040;stroke-miterlimit:10;stroke-width:4px"/><rect x="65.57" y="94.59" width="25.23" height="25.23" rx="9.21" ry="9.21" style="fill:#fff;stroke:#404040;stroke-miterlimit:10;stroke-width:4px"/><rect x="122.96" y="94.59" width="25.23" height="25.23" rx="9.21" ry="9.21" style="fill:#fff;stroke:#404040;stroke-miterlimit:10;stroke-width:4px"/><rect x="94.26" y="151.7" width="25.23" height="25.23" rx="9.21" ry="9.21" style="fill:#fff;stroke:#404040;stroke-miterlimit:10;stroke-width:4px"/><rect x="65.7" y="180.21" width="140.07" height="25.23" rx="9.21" ry="9.21" style="fill:#fff;stroke:#404040;stroke-miterlimit:10;stroke-width:4px"/><rect x="151.65" y="123.14" width="25.23" height="25.23" rx="9.21" ry="9.21" style="fill:#fff;stroke:#404040;stroke-miterlimit:10;stroke-width:4px"/><rect x="180.35" y="94.59" width="25.23" height="25.23" rx="9.21" ry="9.21" style="fill:#fff;stroke:#404040;stroke-miterlimit:10;stroke-width:4px"/><rect x="209.04" y="123.14" width="25.23" height="25.23" rx="9.21" ry="9.21" style="fill:#fff;stroke:#404040;stroke-miterlimit:10;stroke-width:4px"/><rect x="180.35" y="123.14" width="25.23" height="25.23" rx="9.21" ry="9.21" style="fill:#fff;stroke:#404040;stroke-miterlimit:10;stroke-width:4px"/><rect x="151.65" y="151.7" width="25.23" height="25.23" rx="9.21" ry="9.21" style="fill:#fff;stroke:#404040;stroke-miterlimit:10;stroke-width:4px"/><rect x="209.04" y="151.7" width="25.23" height="25.23" rx="9.21" ry="9.21" style="fill:#fff;stroke:#404040;stroke-miterlimit:10;stroke-width:4px"/><rect x="151.65" y="94.59" width="25.23" height="25.23" rx="9.21" ry="9.21" style="fill:#fff;stroke:#404040;stroke-miterlimit:10;stroke-width:4px"/><rect x="209.04" y="94.59" width="25.23" height="25.23" rx="9.21" ry="9.21" style="fill:#fff;stroke:#404040;stroke-miterlimit:10;stroke-width:4px"/><rect x="180.35" y="151.7" width="25.23" height="25.23" rx="9.21" ry="9.21" style="fill:#fff;stroke:#404040;stroke-miterlimit:10;stroke-width:4px"/><rect x="209.06" y="180.25" width="25.23" height="25.23" rx="9.21" ry="9.21" style="fill:#fff;stroke:#404040;stroke-miterlimit:10;stroke-width:4px"/><rect x="237.74" y="123.14" width="25.23" height="25.23" rx="9.21" ry="9.21" style="fill:#fff;stroke:#404040;stroke-miterlimit:10;stroke-width:4px"/><rect x="237.74" y="151.7" width="25.23" height="25.23" rx="9.21" ry="9.21" style="fill:#fff;stroke:#404040;stroke-miterlimit:10;stroke-width:4px"/><rect x="237.74" y="94.59" width="25.23" height="25.23" rx="9.21" ry="9.21" style="fill:#fff;stroke:#404040;stroke-miterlimit:10;stroke-width:4px"/><rect x="237.74" y="180.25" width="25.23" height="25.23" rx="9.21" ry="9.21" style="fill:#fff;stroke:#404040;stroke-miterlimit:10;stroke-width:4px"/><rect x="36.87" y="123.14" width="25.23" height="25.23" rx="9.21" ry="9.21" style="fill:#fff;stroke:#404040;stroke-miterlimit:10;stroke-width:4px"/><rect x="36.87" y="151.7" width="25.23" height="25.23" rx="9.21" ry="9.21" style="fill:#fff;stroke:#404040;stroke-miterlimit:10;stroke-width:4px"/><rect x="36.87" y="94.59" width="25.23" height="25.23" rx="9.21" ry="9.21" style="fill:#fff;stroke:#404040;stroke-miterlimit:10;stroke-width:4px"/><rect x="36.87" y="180.25" width="25.23" height="25.23" rx="9.21" ry="9.21" style="fill:#fff;stroke:#404040;stroke-miterlimit:10;stroke-width:4px"/></svg>